<svg width="24" height="25" viewBox="0 0 24 25" fill="none" xmlns="http://www.w3.org/2000/svg">
<path d="M17 2.02539H7C4.23858 2.02539 2 4.26397 2 7.02539V17.0254C2 19.7868 4.23858 22.0254 7 22.0254H17C19.7614 22.0254 22 19.7868 22 17.0254V7.02539C22 4.26397 19.7614 2.02539 17 2.02539Z" stroke="#383638" stroke-width="2" stroke-linecap="round" stroke-linejoin="round"/>
<path d="M15.9997 11.3952C16.1231 12.2274 15.981 13.0774 15.5935 13.8242C15.206 14.571 14.5929 15.1766 13.8413 15.5549C13.0898 15.9331 12.2382 16.0648 11.4075 15.9311C10.5768 15.7975 9.80947 15.4053 9.21455 14.8104C8.61962 14.2154 8.22744 13.4481 8.09377 12.6174C7.96011 11.7868 8.09177 10.9351 8.47003 10.1836C8.84829 9.43206 9.45389 8.81894 10.2007 8.43145C10.9475 8.04395 11.7975 7.90179 12.6297 8.0252C13.4786 8.15109 14.2646 8.54667 14.8714 9.15351C15.4782 9.76035 15.8738 10.5463 15.9997 11.3952Z" stroke="#383638" stroke-width="2" stroke-linecap="round" stroke-linejoin="round"/>
<path d="M17.5 6.52539H17.51" stroke="#383638" stroke-width="2" stroke-linecap="round" stroke-linejoin="round"/>
</svg>
