<svg width="24" height="20" viewBox="0 0 24 20" fill="none" xmlns="http://www.w3.org/2000/svg">
<path d="M23 1.02544C22.0424 1.70091 20.9821 2.21755 19.86 2.55544C19.2577 1.86295 18.4573 1.37213 17.567 1.14936C16.6767 0.926597 15.7395 0.982632 14.8821 1.30989C14.0247 1.63715 13.2884 2.21984 12.773 2.97915C12.2575 3.73847 11.9877 4.63777 12 5.55544V6.55544C10.2426 6.601 8.50127 6.21125 6.93101 5.42088C5.36074 4.63052 4.01032 3.46407 3 2.02544C3 2.02544 -1 11.0254 8 15.0254C5.94053 16.4234 3.48716 17.1244 1 17.0254C10 22.0254 21 17.0254 21 5.52544C20.9991 5.24689 20.9723 4.96903 20.92 4.69544C21.9406 3.68893 22.6608 2.41815 23 1.02544V1.02544Z" stroke="#383638" stroke-width="2" stroke-linecap="round" stroke-linejoin="round"/>
</svg>
